#!OML:ASF E:\id_vita\Project 1\Capture day 1\Session 1\Female.ASF
:FULLY-SPECIFIED
:DEGREES
1005
root 10.0571 14.6749 -3.30297 -232.909 -81.8998 -78.345
lowerback 16.5069 2.19585 -3.56417
upperback 2.46416 2.36741 3.62359
thorax -6.92087 1.21611 5.4046
lowerneck -14.0125 -1.00157 -9.93493
upperneck -33.0111 -0.694115 10.4217
head -8.02316 -1.17015 5.599
rclavicle -1.33186e-014 4.45278e-014
rhumerus 36.3161 12.9127 -95.1393
rradius 60.4056
rwrist -19.4739
rhand -30.2232 5.23785
rfingers 7.12502
rthumb -3.53296 -24.7126
lclavicle -1.33186e-014 4.45278e-014
lhumerus 63.2302 -18.0794 108.142
lradius 15.3115
lwrist -26.2891
lhand -13.1242 43.3878
lfingers 7.12502
lthumb 12.9735 72.9644
rfemur -72.4671 -7.92844 22.8392
rtibia 86.0932
rfoot -5.22239 -12.3445
rtoes -17.4918
lfemur -94.7385 -0.535578 -35.1844
ltibia 49.0885
lfoot -4.43318 14.1333
ltoes 27.6146
1006
root 10.1208 14.6778 -3.30711 -231.764 -82.015 -79.6761
lowerback 16.6494 2.33806 -3.67794
upperback 2.53398 2.53217 3.74662
thorax -6.95497 1.29671 5.56522
lowerneck -13.6699 -0.892211 -9.89279
upperneck -33.1018 -0.657407 9.95391
head -8.12758 -1.11862 5.43147
rclavicle -2.98177e-014 -5.27773e-014
rhumerus 36.4407 12.9386 -94.6862
rradius 60.4428
rwrist -19.4124
rhand -30.142 5.32583
rfingers 7.12502
rthumb -3.45461 -24.6259
lclavicle -2.98177e-014 -5.27773e-014
lhumerus 63.4809 -18.5202 107.133
lradius 15.6981
lwrist -24.8155
lhand -13.1954 43.3464
lfingers 7.12502
lthumb 12.9049 72.9274
rfemur -72.5952 -7.91008 23.7321
rtibia 86.3947
rfoot -6.29161 -11.1754
rtoes -18.4829
lfemur -94.6217 -0.393377 -35.5726
ltibia 48.7405
lfoot -4.23997 13.6972
ltoes 27.3246
1007
root 10.1858 14.6626 -3.3094 -230.099 -82.1203 -81.3077
lowerback 16.5563 2.38428 -3.61677
upperback 2.53753 2.60449 3.7316
thorax -6.90594 1.32868 5.4978
lowerneck -13.203 -0.76218 -9.68516
upperneck -33.3082 -0.605966 9.53896
head -8.29287 -1.08916 5.26147
rclavicle 9.34288e-015 2.06736e-014
rhumerus 36.5168 12.9592 -94.5818
rradius 60.526
rwrist -19.2468
rhand -29.9683 5.2682
rfingers 7.12502
rthumb -3.28688 -24.6862
lclavicle 9.34288e-015 2.06736e-014
lhumerus 63.7864 -18.8622 105.92
lradius 16.0621
lwrist -23.3204
lhand -12.8522 43.5729
lfingers 7.12502
lthumb 13.2356 73.1327
rfemur -73.1279 -7.84408 24.6298
rtibia 86.7701
rfoot -7.28187 -9.88228
rtoes -18.7381
lfemur -94.8022 -0.379571 -35.7946
ltibia 48.4824
lfoot -4.08581 13.5081
ltoes 27.3245
1008
root 10.2393 14.648 -3.31291 -227.488 -82.2345 -84.1254
lowerback 16.5893 2.48966 -3.73522
upperback 2.59694 2.71598 3.71591
thorax -6.87866 1.38204 5.52298
lowerneck -12.9016 -0.713993 -9.59151
upperneck -33.3591 -0.618459 9.2705
head -8.36429 -1.08375 5.1541
rclavicle 9.54166e-015 -2.45499e-014
rhumerus 36.555 12.9643 -94.4897
rradius 60.4778
rwrist -19.0219
rhand -29.7677 5.45527
rfingers 7.12502
rthumb -3.09312 -24.502
lclavicle 9.54166e-015 -2.45499e-014
lhumerus 63.8107 -18.9891 105.301
lradius 16.4143
lwrist -22.2262
lhand -12.9436 43.6298
lfingers 7.12502
lthumb 13.1476 73.1953
rfemur -73.3363 -7.66145 25.3598
rtibia 87.0935
rfoot -8.6308 -8.58574
rtoes -19.0983
lfemur -94.7597 -0.208555 -36.1023
ltibia 48.3025
lfoot -3.99809 13.4397
ltoes 27.5409
1009
root 10.3085 14.6384 -3.32715 -226.818 -82.3697 -84.8204
lowerback 16.5755 2.54087 -3.93318
upperback 2.59627 2.75789 3.85307
thorax -6.89375 1.40929 5.7779
lowerneck -12.2283 -0.638669 -9.49247
upperneck -33.6349 -0.632495 8.94231
head -8.57948 -1.08032 5.04162
rclavicle -5.10877e-014 -8.52289e-014
rhumerus 36.5802 13.0086 -94.3725
rradius 60.398
rwrist -18.763
rhand -29.7512 5.75981
rfingers 7.12502
rthumb -3.07722 -24.1977
lclavicle -5.10877e-014 -8.52289e-014
lhumerus 63.8441 -19.0296 104.92
lradius 16.7277
lwrist -21.3667
lhand -13.1443 43.5181
lfingers 7.12502
lthumb 12.954 73.096
rfemur -73.7568 -7.54484 26.3706
rtibia 87.3592
rfoot -9.99054 -7.22019
rtoes -19.5955
lfemur -94.9351 -0.0903499 -36.6943
ltibia 48.0926
lfoot -3.74616 12.7458
ltoes 26.9162
1010
root 10.3827 14.6152 -3.33802 -226.061 -82.3477 -85.4053
lowerback 16.236 2.60607 -3.89424
upperback 2.69209 2.86291 3.99097
thorax -6.62434 1.45065 5.88753
lowerneck -12.3878 -0.582137 -9.25385
upperneck -33.569 -0.690795 8.40434
head -8.53969 -1.09364 4.80099
rclavicle 9.44227e-015 4.18442e-014
rhumerus 36.8243 13.0028 -94.2186
rradius 60.4801
rwrist -18.5696
rhand -29.7574 5.52175
rfingers 7.12502
rthumb -3.0832 -24.4357
lclavicle 9.44227e-015 4.18442e-014
lhumerus 64.2147 -19.0472 104.648
lradius 16.8617
lwrist -21.2404
lhand -12.9826 43.6693
lfingers 7.12502
lthumb 13.11 73.2373
rfemur -74.4788 -7.30494 27.5576
rtibia 87.53
rfoot -11.0984 -5.64291
rtoes -19.939
lfemur -95.3583 0.0084275 -37.1386
ltibia 47.8027
lfoot -3.27291 12.0224
ltoes 25.6437
1011
root 10.4382 14.6186 -3.34263 -224.907 -82.4326 -86.8643
lowerback 16.2972 2.69669 -3.9149
upperback 2.86436 2.96503 3.99729
thorax -6.48755 1.48915 5.88299
lowerneck -12.3482 -0.471977 -8.91211
upperneck -33.5012 -0.675055 7.86843
head -8.53561 -1.07852 4.54376
rclavicle 1.4561e-014 -7.09413e-015
rhumerus 37.0146 12.9745 -94.0402
rradius 60.5976
rwrist -18.5369
rhand -29.768 5.35989
rfingers 7.12502
rthumb -3.0934 -24.5974
lclavicle 1.4561e-014 -7.09413e-015
lhumerus 64.0714 -18.5023 105.84
lradius 16.8081
lwrist -23.4938
lhand -11.6674 43.3721
lfingers 7.12502
lthumb 14.3775 72.8542
rfemur -74.4026 -7.1749 28.489
rtibia 87.3766
rfoot -12.3896 -4.10611
rtoes -21.0322
lfemur -95.0894 0.25318 -37.7082
ltibia 47.3798
lfoot -3.1808 11.6317
ltoes 25.691
1012
root 10.4924 14.6368 -3.33614 -224.028 -82.5324 -88.1313
lowerback 16.4065 2.71275 -3.7664
upperback 2.93082 2.99993 3.95545
thorax -6.4705 1.49802 5.74193
lowerneck -12.2818 -0.428505 -8.84479
upperneck -33.2009 -0.632155 7.69525
head -8.44109 -1.03508 4.45265
rclavicle 2.11644e-014 1.78937e-014
rhumerus 36.9579 12.9627 -94.0055
rradius 60.5797
rwrist -18.5288
rhand -29.7175 5.6744
rfingers 7.12502
rthumb -3.04465 -24.2836
lclavicle 2.11644e-014 1.78937e-014
lhumerus 64.2657 -19.1074 104.413
lradius 17.1211
lwrist -20.7043
lhand -12.7509 43.7896
lfingers 7.12502
lthumb 13.3334 73.3431
rfemur -74.4955 -7.32017 30.0723
rtibia 87.1121
rfoot -13.4879 -3.79274
rtoes -27.2569
lfemur -94.597 0.385994 -38.0254
ltibia 46.8497
lfoot -3.16872 11.5532
ltoes 26.4474
1013
root 10.557 14.6523 -3.33701 -224.949 -82.5698 -87.6687
lowerback 16.8928 2.64632 -3.55119
upperback 2.73408 2.95078 4.02521
thorax -6.93483 1.48568 5.69599
lowerneck -11.1134 -0.293925 -9.15196
upperneck -33.313 -0.400144 7.88627
head -8.68248 -0.882916 4.58522
rclavicle 1.10574e-015 2.27795e-014
rhumerus 36.3352 12.9829 -94.2899
rradius 60.5925
rwrist -18.3943
rhand -29.3719 5.6611
rfingers 7.12502
rthumb -2.71085 -24.3014
lclavicle 1.10574e-015 2.27795e-014
lhumerus 63.8291 -19.124 103.969
lradius 17.2758
lwrist -19.1461
lhand -12.9466 43.7962
lfingers 7.12502
lthumb 13.1447 73.3619
rfemur -74.3414 -7.19088 31.0845
rtibia 86.7279
rfoot -15.3667 -2.26061
rtoes -28.3053
lfemur -94.0754 0.50051 -38.179
ltibia 46.3679
lfoot -3.09179 11.2441
ltoes 26.5221
